<?xml version="1.0" standalone="no"?>
<!DOCTYPE svg PUBLIC "-//W3C//DTD SVG 20010904//EN"
 "http://www.w3.org/TR/2001/REC-SVG-20010904/DTD/svg10.dtd">
<svg version="1.0" xmlns="../external.html?link=http://www.w3.org/2000/svg"
 width="720.000000pt" height="720.000000pt" viewBox="0 0 720.000000 720.000000"
 preserveAspectRatio="xMidYMid meet">
<metadata>
Created by potrace 1.11, written by Peter Selinger 2001-2013
</metadata>
<g transform="translate(0.000000,720.000000) scale(0.100000,-0.100000)"
fill="#000000" stroke="none">
<path d="M410 5337 l0 -1863 749 1 c412 0 753 3 757 7 10 10 11 67 2 61 -5 -2
-4 6 0 19 4 13 6 46 5 73 -2 28 -3 61 -3 75 1 14 0 52 0 85 -1 78 -1 61 2 213
2 72 -1 132 -6 132 -5 0 -4 6 1 13 5 6 8 30 6 52 -1 22 -2 49 -3 60 -1 11 0
42 3 68 2 26 0 50 -4 53 -5 3 -5 15 -1 27 9 28 9 78 -1 94 -4 6 -4 14 0 16 10
6 9 89 -1 105 -4 7 -3 12 1 12 5 0 7 24 5 53 -4 64 -4 61 1 120 2 26 0 50 -4
53 -5 3 -5 15 -1 27 9 28 9 78 -1 94 -4 6 -4 14 0 16 10 6 9 89 0 104 -4 7 -4
14 0 16 10 6 9 89 -1 105 -4 7 -4 12 1 12 4 0 8 15 8 34 0 19 -3 32 -7 29 -5
-2 -4 6 0 19 4 13 6 46 5 73 -3 56 -3 61 -1 198 l1 97 26 0 c169 4 2172 -1
2191 -5 13 -2 42 -7 65 -10 22 -3 65 -13 95 -22 30 -9 63 -18 73 -20 47 -8
235 -107 284 -148 7 -5 19 -16 27 -22 8 -7 19 -13 23 -13 16 0 181 -179 225
-245 49 -74 117 -211 133 -267 2 -5 3 -9 5 -10 1 -2 3 -10 5 -18 1 -8 10 -43
19 -77 71 -272 14 -598 -150 -854 -58 -89 -174 -219 -196 -219 -5 0 -8 -6 -8
-12 -1 -29 -282 -194 -365 -213 -5 -2 -35 -10 -66 -19 -67 -20 -89 -24 -149
-32 -25 -3 -535 -7 -1135 -9 -599 -2 -1094 -3 -1100 -4 -7 -1 -10 -257 -9
-748 1 -412 2 -750 3 -753 1 -7 2403 -4 2461 3 25 3 72 8 105 12 33 3 74 9 90
12 17 3 39 7 50 8 11 2 34 6 50 9 27 5 43 9 93 20 200 46 414 125 597 221 135
71 146 77 182 102 17 13 34 23 37 23 3 0 45 28 92 62 48 35 96 70 108 78 11 8
26 19 32 25 6 5 32 28 59 50 118 98 283 275 388 415 256 341 436 763 493 1155
3 22 7 49 9 60 2 11 7 45 11 75 10 69 11 464 0 545 -4 33 -9 76 -11 95 -2 19
-6 46 -9 60 -3 13 -8 42 -11 65 -3 22 -8 47 -10 55 -2 8 -7 30 -10 48 -3 18
-12 52 -20 75 -8 23 -15 50 -15 60 0 9 -4 25 -9 35 -5 9 -16 40 -24 67 -22 75
-92 245 -138 338 -46 92 -147 265 -166 285 -6 6 -15 21 -18 32 -3 11 -11 20
-16 20 -5 0 -9 5 -9 11 0 6 -6 17 -12 24 -7 8 -17 20 -23 27 -120 155 -269
314 -402 431 -110 96 -467 336 -492 331 -3 -1 -18 7 -33 17 -14 10 -29 19 -33
19 -4 0 -37 14 -73 31 -61 28 -182 77 -207 83 -5 2 -17 6 -25 9 -90 33 -319
90 -415 103 -28 3 -78 11 -135 22 -14 2 -931 6 -2037 8 l-2013 5 0 -1864z"/>
<path d="M1967 804 c-3 -3 -26 -7 -52 -8 l-46 -1 0 -367 c0 -203 1 -378 1
-391 l0 -23 158 2 c86 1 166 5 177 8 11 3 40 10 65 16 24 6 47 14 50 18 3 4
21 16 40 26 125 68 203 258 168 406 -5 19 -10 42 -13 52 -22 95 -138 203 -250
233 -16 5 -37 10 -45 12 -8 3 -63 6 -122 8 -59 1 -111 6 -116 9 -5 3 -12 3
-15 0z m258 -92 c95 -30 162 -86 202 -171 22 -46 26 -69 26 -136 0 -67 -4 -89
-28 -135 -32 -64 -81 -112 -147 -146 -26 -13 -50 -24 -53 -23 -3 0 -20 -3 -37
-6 -18 -4 -79 -8 -135 -10 -98 -1 -103 -1 -104 19 -1 28 -1 597 0 614 1 10 28
12 124 8 67 -2 136 -9 152 -14z"/>
<path d="M4583 802 c-6 -4 -34 -7 -62 -6 -46 1 -51 -1 -52 -20 0 -23 0 -530 0
-672 l1 -91 38 1 37 2 1 145 c1 79 2 149 3 156 1 7 43 12 134 15 142 4 173 12
233 65 50 45 68 89 67 173 -1 61 -8 87 -39 131 -48 70 -104 92 -240 94 -50 1
-95 5 -100 8 -6 3 -15 3 -21 -1z m239 -96 c90 -43 113 -172 45 -249 -42 -47
-84 -57 -237 -58 -90 0 -84 -10 -85 152 0 79 1 152 3 161 4 16 17 17 121 15
87 -2 125 -7 153 -21z"/>
<path d="M3439 778 c0 -13 -1 -59 -2 -103 l-2 -80 -50 0 c-71 -2 -74 -5 -66
-66 1 -3 18 -6 39 -6 90 -1 80 30 79 -255 l0 -252 39 0 39 -1 0 253 c0 160 4
252 10 253 6 1 36 1 68 1 l58 0 -3 36 -3 36 -62 0 c-51 -1 -63 2 -64 15 -1 9
-2 54 -3 101 l-1 84 -37 4 c-34 3 -38 1 -39 -20z"/>
<path d="M2859 601 c-44 -9 -124 -55 -156 -90 -23 -25 -63 -98 -71 -131 -12
-50 -2 -150 21 -201 24 -54 90 -129 114 -129 7 0 13 -4 13 -8 0 -15 71 -34
139 -38 64 -3 128 10 143 31 4 5 8 6 8 2 0 -9 15 4 65 54 l31 30 -1 -53 0 -53
35 0 35 0 0 289 0 290 -27 -1 c-16 -1 -32 -1 -37 -2 -5 -1 -8 -16 -7 -33 5
-54 -3 -59 -38 -24 -18 18 -49 40 -69 49 -41 20 -143 29 -198 18z m173 -87
c142 -74 174 -265 63 -377 -40 -40 -83 -58 -143 -62 -95 -6 -170 35 -222 119
-35 58 -34 153 4 222 28 53 93 104 145 114 45 10 118 2 153 -16z"/>
<path d="M3924 594 c-71 -21 -110 -50 -171 -127 -24 -31 -45 -127 -39 -185 7
-77 8 -83 33 -124 35 -60 71 -94 130 -123 46 -24 68 -29 132 -29 107 -1 143
13 204 76 15 15 29 28 32 28 3 0 5 -22 5 -50 l0 -50 37 4 37 3 1 274 c0 151
-3 281 -6 289 -7 16 -52 20 -66 6 -4 -4 -6 -26 -4 -49 l3 -42 -39 37 c-21 20
-56 45 -78 54 -50 21 -156 25 -211 8z m203 -86 c166 -96 157 -342 -16 -416
-20 -8 -47 -16 -61 -17 -14 0 -31 -5 -38 -9 -7 -4 -12 -2 -12 4 0 6 -4 9 -9 6
-15 -10 -104 33 -138 66 -56 54 -79 155 -52 235 44 135 206 200 326 131z"/>
<path d="M5258 598 c-16 -5 -28 -14 -28 -19 0 -5 -5 -9 -11 -9 -7 0 -22 -12
-35 -27 l-24 -28 0 38 c0 20 -3 37 -7 38 -50 5 -63 3 -67 -11 -2 -8 -3 -138
-2 -289 l1 -274 32 -3 c18 -1 36 3 40 9 4 6 7 97 8 202 1 203 4 218 55 260 26
22 80 48 80 38 0 -3 7 0 15 7 15 13 21 69 8 71 -5 0 -15 2 -23 3 -8 2 -27 -1
-42 -6z"/>
<path d="M5583 600 c-101 -20 -197 -108 -220 -202 -15 -63 -15 -156 1 -186 9
-18 16 -34 16 -37 -3 -17 60 -97 87 -112 18 -10 33 -20 33 -23 0 -13 79 -33
141 -36 131 -6 231 55 286 173 45 97 33 224 -29 307 -41 55 -83 84 -155 107
-60 20 -93 22 -160 9z m169 -86 c97 -48 145 -169 113 -279 -28 -99 -99 -156
-198 -161 -67 -3 -95 5 -149 43 -79 54 -111 187 -69 285 48 113 195 167 303
112z"/>
</g>
</svg>
