<?xml version="1.0" encoding="utf-8"?><svg width="518" height="453" viewBox="0 0 518 453" xmlns="http://www.w3.org/2000/svg" xmlns:xlink="../../../external.html?link=http://www.w3.org/1999/xlink"><svg width="17.406" height="12.469" viewBox="-2 -2 17.406 12.469" id="arrow-back" x="484.407" y="429.995" xmlns="../../../external.html?link=http://www.w3.org/2000/svg">
  <defs>
    <style>.aacls-1{fill:#48b13b;fill-rule:evenodd}</style>
  </defs>
  <path class="aacls-1" d="M163.3,41.344L159.7,44.9h0a0.679,0.679,0,0,0,0,.967h0l3.6,3.553a0.7,0.7,0,0,0,.976,0,0.68,0.68,0,0,0,0-.966l-2.419-2.386h10.368a0.683,0.683,0,1,0,0-1.367H161.856l2.419-2.386a0.68,0.68,0,0,0,0-.966A0.7,0.7,0,0,0,163.3,41.344Z" transform="translate(-159.5 -41.156)"/>
</svg><svg width="15" height="11" viewBox="-2 -2 15 11" id="arrow-down" x="501.813" y="429.995" xmlns="http://www.w3.org/2000/svg">
  <defs>
    <style>.abcls-1{fill:#2c2d30;fill-rule:evenodd}</style>
  </defs>
  <path class="abcls-1" d="M192,590.336L190.7,589l-4.2,4.328L182.3,589l-1.3,1.336L186.5,596Z" transform="translate(-181 -589)"/>
</svg><svg width="16" height="23" viewBox="-2 -2 16 23" id="arrow-down-green" x="484.407" y="262.969" xmlns="http://www.w3.org/2000/svg">
  <defs>
    <style>.accls-1{fill:#48b13b;fill-rule:evenodd}</style>
  </defs>
  <path id="acShape_13_copy" data-name="Shape 13 copy" class="accls-1" d="M753.718,3586.61l-5.032,5.1a0.016,0.016,0,0,0,0,.01,0.966,0.966,0,0,1-1.37,0,0.016,0.016,0,0,0,0-.01l-5.032-5.1a0.981,0.981,0,0,1,0-1.38,0.964,0.964,0,0,1,1.369,0l3.378,3.43v-14.68a0.968,0.968,0,1,1,1.936,0v14.68l3.378-3.43a0.964,0.964,0,0,1,1.369,0A0.981,0.981,0,0,1,753.718,3586.61Z" transform="translate(-742 -3573)"/>
</svg><svg width="11" height="15" viewBox="-2 -2 11 15" id="arrow-next" x="505.407" y="147.969" xmlns="http://www.w3.org/2000/svg">
  <defs>
    <style>.adcls-1{fill:#2c2d30;fill-rule:evenodd}</style>
  </defs>
  <path class="adcls-1" d="M320.336,628L319,629.3l4.328,4.2L319,637.7l1.336,1.3L326,633.5Z" transform="translate(-319 -628)"/>
</svg><svg width="17.35" height="19.406" viewBox="-2 -2 17.35 19.406" id="arrow-right-green" x="484.407" y="410.589" xmlns="http://www.w3.org/2000/svg">
  <defs>
    <style>.aecls-1{fill:#b3ff1f;fill-rule:evenodd}</style>
  </defs>
  <path id="aePolygon_1" data-name="Polygon 1" class="aecls-1" d="M1847.16,540.891l-13.35,7.705v-15.41Z" transform="translate(-1833.81 -533.188)"/>
</svg><svg width="16" height="23" viewBox="-2 -2 16 23" id="arrow-top-green" x="500.407" y="262.969" xmlns="http://www.w3.org/2000/svg">
  <defs>
    <style>.afcls-1{fill:#48b13b;fill-rule:evenodd}</style>
  </defs>
  <path class="afcls-1" d="M274.718,3578.39l-5.032-5.1a0.016,0.016,0,0,1,0-.01,0.966,0.966,0,0,0-1.37,0,0.016,0.016,0,0,1,0,.01l-5.032,5.1a0.981,0.981,0,0,0,0,1.38,0.964,0.964,0,0,0,1.369,0l3.378-3.43v14.68a0.968,0.968,0,1,0,1.936,0v-14.68l3.378,3.43a0.964,0.964,0,0,0,1.369,0A0.981,0.981,0,0,0,274.718,3578.39Z" transform="translate(-263 -3573)"/>
</svg><svg width="18" height="21" viewBox="-2 -2 18 21" id="booklet-green" x="484.407" y="329.344" xmlns="http://www.w3.org/2000/svg">
  <defs>
    <style>.agcls-1{fill:#48b13b;fill-rule:evenodd}</style>
  </defs>
  <path class="agcls-1" d="M277,2116v-17h14v17H277Zm12.682-15.7H278.318v14.4h11.364v-14.4Zm-1.415,2.62h-8.631v-1.3h8.631v1.3Zm-6.177,2.62h-2.454v-1.31h2.454v1.31Zm0,2.61h-2.454v-1.3h2.454v1.3Zm6.177,2.58h-8.631v-1.31h8.631v1.31Zm0,2.61h-8.631v-1.3h8.631v1.3Zm-5.129-9.11h5.247v3.92h-5.247v-3.92Zm1.318,2.62h2.611v-1.31h-2.611v1.31Z" transform="translate(-277 -2099)"/>
</svg><svg width="28" height="28" viewBox="-2 -2 28 28" id="calc-green" x="484.407" y="91.969" xmlns="http://www.w3.org/2000/svg">
  <defs>
    <style>.ahcls-1{fill:#48b13b;fill-rule:evenodd}</style>
  </defs>
  <path class="ahcls-1" d="M351.3,970.741a0.7,0.7,0,0,0,.7-0.7V960.7a0.7,0.7,0,0,0-.7-0.7h-9.25a0.7,0.7,0,0,0-.7.7v3.964h-2.675V960.7a0.7,0.7,0,0,0-.7-0.7h-9.25a0.7,0.7,0,0,0-.7.7v9.335a0.7,0.7,0,0,0,.7.7h3.922v2.518H328.7a0.7,0.7,0,0,0-.7.7V983.3a0.7,0.7,0,0,0,.7.7h9.25a0.7,0.7,0,0,0,.7-0.7v-3.964h2.688V983.3a0.7,0.7,0,0,0,.7.7h9.25a0.7,0.7,0,0,0,.7-0.7v-9.335a0.7,0.7,0,0,0-.7-0.7h-3.922v-2.518H351.3Zm-8.547-9.334h7.844v7.927H342.75v-7.927Zm-13.331,0h7.844v7.927h-7.844v-7.927Zm7.831,21.186h-7.844v-7.927h7.844v7.927Zm13.344,0H342.75v-7.927h7.844v7.927Zm-4.625-9.334h-3.922a0.7,0.7,0,0,0-.7.7v3.964h-2.688v-3.964a0.7,0.7,0,0,0-.7-0.7h-3.909v-2.518h3.922a0.7,0.7,0,0,0,.7-0.7v-3.964h2.675v3.964a0.7,0.7,0,0,0,.7.7h3.922v2.518Zm-11.925-6.127v-1.067h1.072a0.7,0.7,0,0,0,0-1.407h-1.072v-1.067a0.7,0.7,0,1,0-1.406,0v1.067h-1.072a0.7,0.7,0,0,0,0,1.407h1.072v1.067A0.7,0.7,0,0,0,334.044,967.132Zm11.869,9.747a0.7,0.7,0,0,0-.992,1l0.755,0.753-0.755.754a0.7,0.7,0,1,0,.992,1l0.759-.757,0.759,0.757a0.7,0.7,0,0,0,.992-1l-0.755-.754,0.755-.753a0.7,0.7,0,0,0-.992-1l-0.759.757Zm-10.81,1.047h-3.55a0.7,0.7,0,0,0,0,1.407h3.55A0.7,0.7,0,0,0,335.1,977.926Zm9.816-10.807a0.7,0.7,0,0,0,.994,0l2.51-2.5a0.7,0.7,0,1,0-.992-1l-2.51,2.5a0.7,0.7,0,0,0,0,1h0Zm0.5-2.28a0.721,0.721,0,1,0-.722-0.72A0.721,0.721,0,0,0,345.417,964.839Zm2.51,1.063a0.721,0.721,0,1,1-.722.721A0.721,0.721,0,0,1,347.927,965.9Z" transform="translate(-328 -960)"/>
</svg><svg width="25" height="24.5" viewBox="-2 -2 25 24.5" id="close-green" x="484.407" y="194.969" xmlns="http://www.w3.org/2000/svg">
  <defs>
    <style>.aicls-1{fill:#48b13b;fill-rule:evenodd}</style>
  </defs>
  <path id="aiRectangle_3_copy_2" data-name="Rectangle 3 copy 2" class="aicls-1" d="M1851,59.377l-9.07,8.64,8.82,8.822-1.41,1.414-8.86-8.856L1831.45,78l-1.45-1.38,9.07-8.64-8.82-8.822,1.41-1.414,8.86,8.856L1849.55,58Z" transform="translate(-1830 -57.75)"/>
</svg><svg width="25" height="24.5" viewBox="-2 -2 25 24.5" id="close-white" x="484.407" y="219.469" xmlns="http://www.w3.org/2000/svg">
  <defs>
    <style>.ajcls-1{fill:#48b13b;fill-rule:evenodd}</style>
  </defs>
  <path id="ajRectangle_3_copy_2" data-name="Rectangle 3 copy 2" class="ajcls-1" d="M1851,59.377l-9.07,8.64,8.82,8.822-1.41,1.414-8.86-8.856L1831.45,78l-1.45-1.38,9.07-8.64-8.82-8.822,1.41-1.414,8.86,8.856L1849.55,58Z" transform="translate(-1830 -57.75)"/>
</svg><svg width="23" height="35" viewBox="-2 -2 23 35" id="data-centers-energy" x="275.094" y="299.031" xmlns="http://www.w3.org/2000/svg">
  <defs>
    <style>.akcls-1{fill:#fff;fill-rule:evenodd}</style>
  </defs>
  <path class="akcls-1" d="M330.917,678.938a0.636,0.636,0,0,0-.554-0.329h-8.345l1.4-10.887a0.649,0.649,0,0,0-.57-0.717,0.634,0.634,0,0,0-.6.293L312.1,685.406a0.654,0.654,0,0,0,.209.892,0.624,0.624,0,0,0,.333.1h8.22l-1.109,10.9a0.651,0.651,0,0,0,.591.7,0.639,0.639,0,0,0,.59-0.3l9.98-18.106a0.659,0.659,0,0,0,.008-0.653h0Z" transform="translate(-312 -667)"/>
</svg><svg width="28" height="28" viewBox="-2 -2 28 28" id="data-centers-server" x="484.407" y="119.969" xmlns="http://www.w3.org/2000/svg">
  <defs>
    <style>.alcls-1{fill:#fff;fill-rule:evenodd}</style>
  </defs>
  <path class="alcls-1" d="M309,698v-7.061h24V698H309Zm4.221-4.234h-1.407v1.407h1.407v-1.407Zm2.815,0h-1.407v1.407h1.407v-1.407Zm14.15,0h-6.094v1.407h6.094v-1.407ZM309,682.47h24v7.06H309v-7.06Zm15.092,4.233h6.094V685.3h-6.094V686.7Zm-9.463,0h1.407V685.3h-1.407V686.7Zm-2.815,0h1.407V685.3h-1.407V686.7ZM309,674h24v7.061H309V674Zm15.092,4.234h6.094v-1.407h-6.094v1.407Zm-9.463,0h1.407v-1.407h-1.407v1.407Zm-2.815,0h1.407v-1.407h-1.407v1.407Z" transform="translate(-309 -674)"/>
</svg><svg width="33" height="33" viewBox="-2 -2 33 33" id="data-centers-time" x="484.407" xmlns="http://www.w3.org/2000/svg">
  <defs>
    <style>.amcls-1{fill:#fff;fill-rule:evenodd}</style>
  </defs>
  <path class="amcls-1" d="M321.5,598A14.5,14.5,0,1,1,336,583.5,14.516,14.516,0,0,1,321.5,598Zm0-25.831A11.331,11.331,0,1,0,332.831,583.5,11.344,11.344,0,0,0,321.5,572.169Zm3.733,17.3-4.575-4.575a1.221,1.221,0,0,1-.354-0.928c0-.02,0-0.038,0-0.057v-6.47a1.228,1.228,0,1,1,2.456,0v6.077l4.215,4.216A1.228,1.228,0,0,1,325.233,589.47Z" transform="translate(-307 -569)"/>
</svg><svg width="21" height="26" viewBox="-2 -2 21 26" id="document-black" x="484.407" y="147.969" xmlns="http://www.w3.org/2000/svg">
  <defs>
    <style>.ancls-1{fill:#2c2d30;fill-rule:evenodd}</style>
  </defs>
  <path class="ancls-1" d="M302.038,5038H288.961a1.951,1.951,0,0,1-1.961-1.93v-18.14a1.951,1.951,0,0,1,1.961-1.93h8.5v4.51a1.952,1.952,0,0,0,1.961,1.94H304v13.62A1.951,1.951,0,0,1,302.038,5038Zm-10.461-3.91h5.231a0.645,0.645,0,1,0,0-1.29h-5.231A0.645,0.645,0,1,0,291.577,5034.09Zm7.846-9.02h-7.846a0.643,0.643,0,0,0-.654.64,0.651,0.651,0,0,0,.654.65h7.846a0.651,0.651,0,0,0,.654-0.65A0.642,0.642,0,0,0,299.423,5025.07Zm0,2.57h-7.846a0.651,0.651,0,0,0-.654.65,0.643,0.643,0,0,0,.654.64h7.846a0.642,0.642,0,0,0,.654-0.64A0.651,0.651,0,0,0,299.423,5027.64Zm0,2.58h-7.846a0.645,0.645,0,1,0,0,1.29h7.846A0.645,0.645,0,1,0,299.423,5030.22Zm-0.654-9.71v-4.13l4.848,4.78h-4.194A0.651,0.651,0,0,1,298.769,5020.51Z" transform="translate(-287 -5016)"/>
</svg><svg id="dots-gal-white" data-name="Группа 1" width="180.094" height="180.469" viewBox="-2 -2 180.094 180.469" y="178.031" xmlns="http://www.w3.org/2000/svg">
  <defs>
    <style>.aocls-1{fill:#fff;fill-rule:evenodd}.aocls-2{fill:#edeff4}</style>
  </defs>
  <path id="ao_" data-name="+" class="aocls-1" d="M10.586,172.771v-1.654H6.228v-4.562H4.575v4.562H0.217v1.654H4.575v4.674H6.228v-4.674h4.358Z" transform="translate(-0.219 -0.969)"/>
  <rect id="aoПрямоугольник_1" data-name="Прямоугольник 1" class="aocls-2" x="2.781" y="85.031" width="4.781" height="5"/>
  <rect id="aoПрямоугольник_1-2" data-name="Прямоугольник 1" class="aocls-2" x="87.719" y="85.031" width="4.781" height="5"/>
  <rect id="aoПрямоугольник_1-3" data-name="Прямоугольник 1" class="aocls-2" x="87.719" y="169.031" width="4.781" height="5"/>
  <rect id="aoПрямоугольник_1-4" data-name="Прямоугольник 1" class="aocls-2" x="171.312" y="85.031" width="4.782" height="5"/>
  <rect id="aoПрямоугольник_1-5" data-name="Прямоугольник 1" class="aocls-2" x="87.719" width="4.781" height="5"/>
  <rect id="aoПрямоугольник_1-6" data-name="Прямоугольник 1" class="aocls-2" x="2.781" width="4.781" height="5"/>
  <rect id="aoПрямоугольник_1-7" data-name="Прямоугольник 1" class="aocls-2" x="171.312" width="4.782" height="5"/>
  <rect id="aoПрямоугольник_1-8" data-name="Прямоугольник 1" class="aocls-2" x="171.312" y="169.031" width="4.782" height="5"/>
</svg><svg id="dots-gal-white-green-plus" data-name="Группа 1" width="180.094" height="180.469" viewBox="-2 -2 180.094 180.469" x="304.313" xmlns="http://www.w3.org/2000/svg">
  <defs>
    <style>.apcls-1{fill:#48b13b;fill-rule:evenodd}.apcls-2{fill:#edeff4}</style>
  </defs>
  <path id="ap_" data-name="+" class="apcls-1" d="M10.586,172.771v-1.654H6.228v-4.562H4.575v4.562H0.217v1.654H4.575v4.674H6.228v-4.674h4.358Z" transform="translate(-0.219 -0.969)"/>
  <rect id="apПрямоугольник_1" data-name="Прямоугольник 1" class="apcls-2" x="2.781" y="85.031" width="4.781" height="5"/>
  <rect id="apПрямоугольник_1-2" data-name="Прямоугольник 1" class="apcls-2" x="87.719" y="85.031" width="4.781" height="5"/>
  <rect id="apПрямоугольник_1-3" data-name="Прямоугольник 1" class="apcls-2" x="87.719" y="169.031" width="4.781" height="5"/>
  <rect id="apПрямоугольник_1-4" data-name="Прямоугольник 1" class="apcls-2" x="171.312" y="85.031" width="4.782" height="5"/>
  <rect id="apПрямоугольник_1-5" data-name="Прямоугольник 1" class="apcls-2" x="87.719" width="4.781" height="5"/>
  <rect id="apПрямоугольник_1-6" data-name="Прямоугольник 1" class="apcls-2" x="2.781" width="4.781" height="5"/>
  <rect id="apПрямоугольник_1-7" data-name="Прямоугольник 1" class="apcls-2" x="171.312" width="4.782" height="5"/>
  <rect id="apПрямоугольник_1-8" data-name="Прямоугольник 1" class="apcls-2" x="171.312" y="169.031" width="4.782" height="5"/>
</svg><svg id="dots-icon-defense" data-name="Группа 1" width="304.313" height="178.031" viewBox="-2 -2 304.313 178.031" xmlns="http://www.w3.org/2000/svg">
  <defs>
    <style>.aqcls-1{fill:#fff;fill-rule:evenodd;opacity:.2}.aqcls-2{fill:#edeff4}</style>
  </defs>
  <path id="aqdigital_stronghold" data-name="digital stronghold" class="aqcls-1" d="M204.334,130.43a2.516,2.516,0,0,0,.974-0.988h0.021V130.7h1.135V120.261h-1.19v4.181h-0.027a2.364,2.364,0,0,0-.954-0.95,2.884,2.884,0,0,0-1.4-.333,2.8,2.8,0,0,0-2.257,1.054,4.755,4.755,0,0,0,.006,5.509A3.025,3.025,0,0,0,204.334,130.43Zm0.352-5.44a3.579,3.579,0,0,1,0,3.952,1.992,1.992,0,0,1-3.116.011,3.629,3.629,0,0,1,0-3.97A1.989,1.989,0,0,1,204.686,124.99Zm4.72,5.714v-7.476h-1.191V130.7h1.191Zm-0.062-8.907a0.774,0.774,0,0,0,0-1.079,0.748,0.748,0,0,0-1.064,0,0.767,0.767,0,0,0,0,1.079A0.741,0.741,0,0,0,209.344,121.8Zm3.181,7.1a3.595,3.595,0,0,1,0-3.922,1.869,1.869,0,0,1,1.546-.738,1.913,1.913,0,0,1,1.569.749,3.474,3.474,0,0,1,0,3.9,1.916,1.916,0,0,1-1.569.746A1.872,1.872,0,0,1,212.525,128.894Zm4.011,3.71a2.635,2.635,0,0,0,.893-2.108v-7.268h-1.135v1.214h-0.021a2.524,2.524,0,0,0-1-.95,2.946,2.946,0,0,0-1.406-.333,2.828,2.828,0,0,0-2.284,1.033,4.787,4.787,0,0,0,0,5.475,2.792,2.792,0,0,0,2.261,1.037,2.879,2.879,0,0,0,1.4-.337,2.425,2.425,0,0,0,.972-0.946h0.027v1.172a1.562,1.562,0,0,1-.561,1.265,2.3,2.3,0,0,1-1.519.468,2.586,2.586,0,0,1-1.241-.274,1.205,1.205,0,0,1-.64-0.738H211.04a2.1,2.1,0,0,0,.965,1.494A4.208,4.208,0,0,0,216.536,132.6Zm3.766-1.9v-7.476h-1.19V130.7h1.19ZM220.24,121.8a0.774,0.774,0,0,0,0-1.079,0.747,0.747,0,0,0-1.063,0,0.764,0.764,0,0,0,0,1.079A0.74,0.74,0,0,0,220.24,121.8Zm2.134,1.431h-1.026v1h1.026v4.535a2.229,2.229,0,0,0,.428,1.536,1.876,1.876,0,0,0,1.426.461,3.554,3.554,0,0,0,.766-0.062v-1.02a3.061,3.061,0,0,1-.513.035,0.9,0.9,0,0,1-.694-0.243,1.09,1.09,0,0,1-.222-0.755v-4.487H225v-1h-1.436v-1.685h-1.191v1.685Zm5.175,6.186a0.991,0.991,0,0,1-.414-0.832q0-1.1,1.683-1.2l1.929-.125v0.6a1.716,1.716,0,0,1-.592,1.334,2.153,2.153,0,0,1-1.494.531A1.8,1.8,0,0,1,227.549,129.414Zm2.274,0.988a2.364,2.364,0,0,0,.958-0.995h0.027v1.3h1.129v-5.132a2.179,2.179,0,0,0-.78-1.758,3.141,3.141,0,0,0-2.086-.655,3.037,3.037,0,0,0-1.963.642,2.035,2.035,0,0,0-.828,1.584h1.142a1.325,1.325,0,0,1,.551-0.839,1.831,1.831,0,0,1,1.084-.312,1.875,1.875,0,0,1,1.252.374,1.329,1.329,0,0,1,.438,1.068V126.3l-2.066.125a3.681,3.681,0,0,0-2.052.635,1.81,1.81,0,0,0-.711,1.515,2.023,2.023,0,0,0,.684,1.595,2.63,2.63,0,0,0,1.805.6A2.783,2.783,0,0,0,229.823,130.4Zm4.953,0.3V120.261h-1.191V130.7h1.191Zm6.833-3.391,1.293,0.34a2.219,2.219,0,0,1,.889.4,0.8,0.8,0,0,1,.26.628,0.918,0.918,0,0,1-.441.8,2.557,2.557,0,0,1-2.394-.007,1.226,1.226,0,0,1-.537-0.87h-1.2a2.144,2.144,0,0,0,.875,1.57,3.168,3.168,0,0,0,1.977.6,3.406,3.406,0,0,0,2.1-.61,1.875,1.875,0,0,0,.818-1.567,1.7,1.7,0,0,0-.455-1.266,3.487,3.487,0,0,0-1.57-.731l-1.122-.285q-1.245-.312-1.244-1.061a0.926,0.926,0,0,1,.417-0.79,2.161,2.161,0,0,1,2.2.007,1.121,1.121,0,0,1,.479.832H245.1a1.973,1.973,0,0,0-.8-1.529,2.931,2.931,0,0,0-1.885-.607,3.072,3.072,0,0,0-1.966.6,1.886,1.886,0,0,0-.763,1.547q0,1.491,1.922,2h0Zm5.322-4.085h-1.026v1h1.026v4.535a2.23,2.23,0,0,0,.427,1.536,1.876,1.876,0,0,0,1.426.461,3.554,3.554,0,0,0,.766-0.062v-1.02a3.053,3.053,0,0,1-.513.035,0.9,0.9,0,0,1-.694-0.243,1.09,1.09,0,0,1-.222-0.755v-4.487h1.436v-1h-1.436v-1.685h-1.19v1.685Zm5.136,7.476v-4.626a1.836,1.836,0,0,1,.435-1.275,1.47,1.47,0,0,1,1.152-.486,1.674,1.674,0,0,1,.616.083v-1.192a1.754,1.754,0,0,0-.458-0.049,1.9,1.9,0,0,0-1.136.347,1.664,1.664,0,0,0-.65.936H252v-1.214h-1.122V130.7h1.19Zm9.344-3.738a4.013,4.013,0,0,0-.923-2.774,3.485,3.485,0,0,0-4.953,0,4.63,4.63,0,0,0,0,5.548,3.485,3.485,0,0,0,4.953,0A4.013,4.013,0,0,0,261.411,126.966Zm-5.007,2.008a3.767,3.767,0,0,1,0-4.015,2.155,2.155,0,0,1,3.221,0,3.782,3.782,0,0,1,0,4.019A2.15,2.15,0,0,1,256.4,128.974Zm7.449,1.73v-4.341a2.161,2.161,0,0,1,.551-1.547,1.915,1.915,0,0,1,1.46-.582,1.75,1.75,0,0,1,1.33.485,1.956,1.956,0,0,1,.462,1.4V130.7h1.19v-4.792a2.8,2.8,0,0,0-.7-2.014,2.888,2.888,0,0,0-4.33.544h-0.027v-1.214h-1.122V130.7h1.19Zm8.01-1.81a3.595,3.595,0,0,1,0-3.922,1.869,1.869,0,0,1,1.546-.738,1.913,1.913,0,0,1,1.569.749,3.474,3.474,0,0,1,0,3.9,1.916,1.916,0,0,1-1.569.746A1.872,1.872,0,0,1,271.863,128.894Zm4.012,3.71a2.638,2.638,0,0,0,.892-2.108v-7.268h-1.135v1.214h-0.021a2.524,2.524,0,0,0-1-.95,2.946,2.946,0,0,0-1.406-.333,2.828,2.828,0,0,0-2.284,1.033,4.787,4.787,0,0,0,0,5.475,2.793,2.793,0,0,0,2.261,1.037,2.879,2.879,0,0,0,1.395-.337,2.425,2.425,0,0,0,.972-0.946h0.027v1.172a1.562,1.562,0,0,1-.561,1.265,2.3,2.3,0,0,1-1.518.468,2.59,2.59,0,0,1-1.242-.274,1.2,1.2,0,0,1-.639-0.738h-1.239a2.105,2.105,0,0,0,.965,1.494A4.209,4.209,0,0,0,275.875,132.6Zm3.765-1.9v-4.3a2.181,2.181,0,0,1,.571-1.574,2,2,0,0,1,1.508-.6,1.826,1.826,0,0,1,1.372.51,1.928,1.928,0,0,1,.5,1.4V130.7h1.19v-4.771a2.754,2.754,0,0,0-.746-2.011,2.611,2.611,0,0,0-1.956-.763,2.511,2.511,0,0,0-2.408,1.283H279.64v-4.181h-1.19V130.7h1.19Zm13.154-3.738a4.008,4.008,0,0,0-.924-2.774,3.484,3.484,0,0,0-4.952,0,4.63,4.63,0,0,0,0,5.548,3.484,3.484,0,0,0,4.952,0A4.008,4.008,0,0,0,292.794,126.966Zm-5.007,2.008a3.764,3.764,0,0,1,0-4.015,2.156,2.156,0,0,1,3.222,0,3.782,3.782,0,0,1,0,4.019A2.15,2.15,0,0,1,287.787,128.974Zm7.517,1.73V120.261h-1.19V130.7h1.19Zm5.893-.274a2.516,2.516,0,0,0,.974-0.988h0.021V130.7h1.135V120.261h-1.19v4.181H302.11a2.364,2.364,0,0,0-.954-0.95,2.884,2.884,0,0,0-1.4-.333,2.8,2.8,0,0,0-2.257,1.054,4.755,4.755,0,0,0,.006,5.509A3.025,3.025,0,0,0,301.2,130.43Zm0.352-5.44a3.579,3.579,0,0,1,0,3.952,1.992,1.992,0,0,1-3.116.011,3.629,3.629,0,0,1,0-3.97A1.989,1.989,0,0,1,301.549,124.99Z" transform="translate(-3 -0.969)"/>
  <path class="aqcls-1" d="M173.922,91h1v41h-1V91Z" transform="translate(-3 -0.969)"/>
  <rect id="aqПрямоугольник_1" data-name="Прямоугольник 1" class="aqcls-2" y="85.031" width="4.781" height="5"/>
  <rect id="aqПрямоугольник_1-2" data-name="Прямоугольник 1" class="aqcls-2" y="169.031" width="4.781" height="5"/>
  <rect id="aqПрямоугольник_1-3" data-name="Прямоугольник 1" class="aqcls-2" x="83" y="85.031" width="4.781" height="5"/>
  <rect id="aqПрямоугольник_1-4" data-name="Прямоугольник 1" class="aqcls-2" x="84.938" y="85.031" width="4.781" height="5"/>
  <rect id="aqПрямоугольник_1-5" data-name="Прямоугольник 1" class="aqcls-2" x="84.938" y="169.031" width="4.781" height="5"/>
  <rect id="aqПрямоугольник_1-6" data-name="Прямоугольник 1" class="aqcls-2" x="168.531" y="85.031" width="4.782" height="5"/>
  <rect id="aqПрямоугольник_1-7" data-name="Прямоугольник 1" class="aqcls-2" x="84.938" width="4.781" height="5"/>
  <rect id="aqПрямоугольник_1-8" data-name="Прямоугольник 1" class="aqcls-2" width="4.781" height="5"/>
  <rect id="aqПрямоугольник_1-9" data-name="Прямоугольник 1" class="aqcls-2" x="168.531" width="4.782" height="5"/>
  <rect id="aqПрямоугольник_1-10" data-name="Прямоугольник 1" class="aqcls-2" x="168.531" y="169.031" width="4.782" height="5"/>
</svg><svg id="dots8-white" data-name="Группа 1" width="177.313" height="178.031" viewBox="-2 -2 177.313 178.031" x="304.313" y="180.469" xmlns="http://www.w3.org/2000/svg">
  <defs>
    <style>.arcls-1{fill:#fff;fill-rule:evenodd;opacity:.2}.arcls-2{fill:#edeff4}</style>
  </defs>
  <path id="ar_100_" data-name="100%" class="arcls-1" d="M31.9,89.7V79.7H30.7l-2.627,1.914v1.317l2.613-1.907h0.027V89.7H31.9Zm8.625-1.227a7.917,7.917,0,0,0,0-7.555,3.25,3.25,0,0,0-5.335.007,7.873,7.873,0,0,0-.007,7.551A3.262,3.262,0,0,0,40.528,88.476ZM35.459,84.69a5.915,5.915,0,0,1,.636-2.961,1.959,1.959,0,0,1,3.523,0,5.982,5.982,0,0,1,.629,2.971,6.063,6.063,0,0,1-.622,2.992,1.976,1.976,0,0,1-3.536,0,6.027,6.027,0,0,1-.629-3h0Zm13.564,3.786a7.917,7.917,0,0,0,0-7.555,3.25,3.25,0,0,0-5.335.007,7.873,7.873,0,0,0-.007,7.551A3.262,3.262,0,0,0,49.023,88.476ZM43.955,84.69a5.915,5.915,0,0,1,.636-2.961,1.959,1.959,0,0,1,3.523,0,5.982,5.982,0,0,1,.629,2.971,6.063,6.063,0,0,1-.623,2.992,1.976,1.976,0,0,1-3.536,0,6.027,6.027,0,0,1-.629-3h0ZM59.933,79.7H58.757L51.533,89.7h1.19ZM60,85.508a2,2,0,0,0-3.006,0,3.174,3.174,0,0,0,0,3.623,2,2,0,0,0,3.006,0A3.2,3.2,0,0,0,60,85.508Zm-2.48,1.81a2.325,2.325,0,0,1,.263-1.2,0.8,0.8,0,0,1,.715-0.44,0.794,0.794,0,0,1,.715.433,2.94,2.94,0,0,1,0,2.41,0.795,0.795,0,0,1-1.426,0,2.36,2.36,0,0,1-.263-1.207h0Zm-3.013-7.066a2,2,0,0,0-3.006,0,3.174,3.174,0,0,0,0,3.623,2,2,0,0,0,3.006,0A3.2,3.2,0,0,0,54.512,80.252Zm-2.48,1.81a2.325,2.325,0,0,1,.263-1.2,0.8,0.8,0,0,1,.715-0.44,0.794,0.794,0,0,1,.715.433,2.94,2.94,0,0,1,0,2.41,0.795,0.795,0,0,1-1.426,0,2.36,2.36,0,0,1-.263-1.207h0Z" transform="translate(0 -0.969)"/>
  <rect id="arПрямоугольник_1" data-name="Прямоугольник 1" class="arcls-2" y="85.031" width="4.781" height="5"/>
  <rect id="arПрямоугольник_1-2" data-name="Прямоугольник 1" class="arcls-2" x="84.938" y="85.031" width="4.781" height="5"/>
  <rect id="arПрямоугольник_1-3" data-name="Прямоугольник 1" class="arcls-2" x="84.938" y="169.031" width="4.781" height="5"/>
  <rect id="arПрямоугольник_1-4" data-name="Прямоугольник 1" class="arcls-2" x="168.531" y="85.031" width="4.782" height="5"/>
  <rect id="arПрямоугольник_1-5" data-name="Прямоугольник 1" class="arcls-2" x="84.938" width="4.781" height="5"/>
  <rect id="arПрямоугольник_1-6" data-name="Прямоугольник 1" class="arcls-2" x="168.531" width="4.782" height="5"/>
  <rect id="arПрямоугольник_1-7" data-name="Прямоугольник 1" class="arcls-2" x="168.531" y="169.031" width="4.782" height="5"/>
  <rect id="arПрямоугольник_1-8" data-name="Прямоугольник 1" class="arcls-2" y="169.031" width="4.781" height="5"/>
  <path class="arcls-1" d="M2,50H3V91H2V50Z" transform="translate(0 -0.969)"/>
</svg><svg width="20.5" height="21.375" viewBox="-2 -2 20.5 21.375" id="icon-gallery" x="484.407" y="307.969" xmlns="http://www.w3.org/2000/svg">
  <defs>
    <style>.ascls-1{fill:#48b13b;fill-rule:evenodd}</style>
  </defs>
  <path class="ascls-1" d="M1412.67,308.105h-12.43V295.3h12.43v12.805Zm-10.05-2.452h7.67v-7.9h-7.67v7.9Zm14.14,7.047h-11.24v-2.453h8.86V301.12h2.38V312.7Z" transform="translate(-1400.25 -295.313)"/>
</svg><svg width="32" height="55" viewBox="-2 -2 32 55" id="lock-green" x="284" y="358.5" xmlns="http://www.w3.org/2000/svg">
  <defs>
    <style>.atcls-1{fill:#48b13b;fill-rule:evenodd}</style>
  </defs>
  <path class="atcls-1" d="M1166.93,509.677a9.5,9.5,0,0,1,3.65,1.222l0.22-7.489c0.18-6.228-4.04-9.787-9.48-7.91l-0.15.053c-5.53,1.905-10.24,8.687-10.42,15.088l-0.23,7.7a28.935,28.935,0,0,1,3.97-4.093c0.38-.321.78-0.629,1.17-0.919l0.13-4.5c0.09-3.2,2.44-6.609,5.21-7.589l0.16-.054c2.75-.971,4.9.813,4.8,3.973l-0.13,4.446A9.99,9.99,0,0,1,1166.93,509.677Zm-20.94,24.774c-0.27,9.067,5.98,13.753,13.8,10.529,7.66-3.157,13.96-12.738,14.22-21.469,0.12-4.287-1.23-7.624-3.52-9.586a8.285,8.285,0,0,0-4.73-1.931,11.682,11.682,0,0,0-5.02.772,18.508,18.508,0,0,0-5.16,2.993,25.779,25.779,0,0,0-5.15,5.691A25.208,25.208,0,0,0,1145.99,534.451Zm10.75-7.426a6.569,6.569,0,0,1,3.65-5.406c2.03-.827,3.63.416,3.56,2.729a5.9,5.9,0,0,1-.08.727,6.951,6.951,0,0,1-1.7,3.423,1.7,1.7,0,0,0-.47,1.362l0.89,5.408a0.9,0.9,0,0,1-.5.878l-4.13,1.659c-0.32.128-.55-0.109-0.47-0.494l1.25-6.291a0.828,0.828,0,0,0-.41-1.029,2.458,2.458,0,0,1-1.56-2.171A4.119,4.119,0,0,1,1156.74,527.025Z" transform="translate(-1146 -495)"/>
</svg><svg version="1.1" id="logo" y="358.5" viewBox="-2 -2 84 94.3306" enable-background="new 0 0 80 90.33057" xml:space="preserve" width="84" height="94.3306" xmlns="http://www.w3.org/2000/svg">
<path fill="#2C2D30" d="M47.16418,0H0v46.74961h18.88406v18.92203h28.28012C65.29904,65.67165,80,50.97045,80,32.83582
	S65.29904,0,47.16418,0z M45.19122,46.74961h-26.236V18.92197h26.236c7.68424,0,13.91325,6.22991,13.91325,13.91385
	C59.10448,40.52006,52.87546,46.74961,45.19122,46.74961z"/>
<rect fill="#48b13b" width="18.95522" height="18.95522"/>
<g>
	<path fill="#2C2D30" d="M18.29057,80.30842h2.70174c4.61808,0,5.65647,2.92794,5.65647,4.91135
		c0,2.3951-1.58406,4.93707-5.59003,4.93707h-2.76818V80.30842z M21.05875,89.26537c3.26024,0,4.60472-2.08955,4.60472-4.04561
		c0-1.59743-0.90484-4.01994-4.67115-4.01994H19.2747v8.06555H21.05875z"/>
	<path fill="#2C2D30" d="M35.4594,90.15684h-0.9317v-1.35732H34.5009c-0.41278,0.62562-1.25116,1.53104-2.83463,1.53104
		c-2.18287,0-3.89988-1.59749-3.89988-3.86018c0-1.72985,1.2646-3.76633,3.87309-3.76633c0.62495,0,1.9828,0.09265,2.86142,1.43713
		h0.02681v-1.264h0.9317V90.15684z M28.75116,86.55027c0,1.66394,1.35725,2.88824,2.91511,2.88824
		c1.5969,0,2.86143-1.27797,2.86143-2.87486c0-1.65051-1.23833-2.96818-2.88823-2.96818
		C30.05534,83.59547,28.75116,84.86006,28.75116,86.55027z"/>
	<path fill="#2C2D30" d="M37.97457,83.76866h-1.51701V82.8772h1.51701v-2.56878h0.98471v2.56878h1.69021v0.89146h-1.69021v6.38818
		h-0.98471V83.76866z"/>
	<path fill="#2C2D30" d="M49.06131,90.15684h-0.93169v-1.35732h-0.02682c-0.41278,0.62562-1.25116,1.53104-2.83463,1.53104
		c-2.18287,0-3.89982-1.59749-3.89982-3.86018c0-1.72985,1.26455-3.76633,3.87302-3.76633c0.62497,0,1.9828,0.09265,2.86143,1.43713
		h0.02682v-1.264h0.93169V90.15684z M42.35307,86.55027c0,1.66394,1.35725,2.88824,2.91511,2.88824
		c1.59689,0,2.86144-1.27797,2.86144-2.87486c0-1.65051-1.23834-2.96818-2.88825-2.96818
		C43.65725,83.59547,42.35307,84.86006,42.35307,86.55027z"/>
	<path fill="#2C2D30" d="M50.88442,80.30842h3.11391c2.88831,0,3.39439,1.83648,3.39439,2.95475
		c0,1.4634-0.90488,2.94077-3.39439,2.94077h-2.1292v3.9529h-0.98471V80.30842z M51.86913,85.31248h2.14323
		c1.75607,0,2.39504-1.02435,2.39504-2.04931c0-1.05177-0.63897-2.06335-2.39504-2.06335h-2.14323V85.31248z"/>
	<path fill="#2C2D30" d="M58.61707,82.8772h0.93166v1.05122h0.02679c0.3988-0.78538,1.19755-1.23779,2.08955-1.21098v0.98471
		c-0.93164,0.05308-2.06328,0.66526-2.06328,2.14263v4.31206h-0.98472V82.8772z"/>
	<path fill="#2C2D30" d="M69.54406,86.52341c0,2.17003-1.66394,3.80716-3.80717,3.80716c-2.14203,0-3.80597-1.63713-3.80597-3.80716
		c0-2.16884,1.64997-3.81934,3.80597-3.81934C67.89349,82.70406,69.54406,84.35457,69.54406,86.52341z M62.91564,86.52341
		c0,1.65057,1.18473,2.9151,2.82125,2.9151c1.63714,0,2.82185-1.26453,2.82185-2.9151c0-1.64991-1.18472-2.92794-2.82185-2.92794
		C64.10037,83.59547,62.91564,84.8735,62.91564,86.52341z"/>
</g>
</svg><svg width="107" height="121" viewBox="-2 -2 107 121" id="logo-into-letters" x="180.094" y="178.031" xmlns="http://www.w3.org/2000/svg">
  <defs>
    <style>.avcls-1{fill:#fff;fill-rule:evenodd}</style>
  </defs>
  <path id="avФигура_1" data-name="Фигура 1" class="avcls-1" d="M1112.72,508.061h-36.41v-24.51H1052V423h60.72A42.532,42.532,0,0,1,1112.72,508.061Zm-2.54-60.554H1076.4v36.044h33.78A18.022,18.022,0,0,0,1110.18,447.507Zm-23.87,85.874c0,3.1-2.04,6.395-7.2,6.395h-3.56V527.019h3.48C1084.97,527.019,1086.31,530.812,1086.31,533.381Zm-9.49,5.24h2.29c4.2,0,5.93-2.707,5.93-5.24,0-2.069-1.16-5.207-6.01-5.207h-2.21v10.447Zm15.92-8.5a4.162,4.162,0,0,1,3.68,1.862h0.03v-1.638h1.2v9.43h-1.2v-1.758h-0.03a4.183,4.183,0,0,1-3.65,1.983,4.883,4.883,0,0,1-5.02-5A4.827,4.827,0,0,1,1092.74,530.122Zm0.03,8.723a3.677,3.677,0,0,0,3.68-3.724A3.715,3.715,0,1,0,1092.77,538.845Zm8.12-11.826h1.27v3.327h2.18V531.5h-2.18v8.275h-1.27V531.5h-1.95v-1.155h1.95v-3.327Zm9.36,3.1a4.162,4.162,0,0,1,3.68,1.862h0.04v-1.638h1.2v9.43h-1.2v-1.758h-0.04a4.183,4.183,0,0,1-3.65,1.983,4.883,4.883,0,0,1-5.02-5A4.827,4.827,0,0,1,1110.25,530.122Zm0.03,8.723a3.685,3.685,0,0,0,3.69-3.724A3.72,3.72,0,1,0,1110.28,538.845Zm15.61-8c0,1.9-1.16,3.81-4.37,3.81h-2.74v5.12h-1.27V527.019h4.01C1125.24,527.019,1125.89,529.4,1125.89,530.846Zm-7.11,2.655h2.76c2.26,0,3.08-1.327,3.08-2.655,0-1.362-.82-2.672-3.08-2.672h-2.76V533.5Zm9.89-1.793h0.03a2.875,2.875,0,0,1,2.69-1.568v1.275a2.678,2.678,0,0,0-2.65,2.775v5.586h-1.27v-9.43h1.2v1.362Zm7.97-1.586a4.94,4.94,0,1,1-4.9,4.947A4.836,4.836,0,0,1,1136.64,530.122Zm0,8.723a3.787,3.787,0,1,0-3.64-3.776A3.614,3.614,0,0,0,1136.64,538.845Z" transform="translate(-1052 -423)"/>
</svg><svg width="29" height="29" viewBox="-2 -2 29 29" id="logo-intro-square" x="484.407" y="62.969" xmlns="http://www.w3.org/2000/svg">
  <defs>
    <style>.awcls-1{fill:#48b13b;fill-rule:evenodd}</style>
  </defs>
  <path id="awФигура_2" data-name="Фигура 2" class="awcls-1" d="M1051.99,423.011H1077V448h-25.01V423.011Z" transform="translate(-1052 -423)"/>
</svg><svg width="78" height="88" viewBox="-2 -2 78 88" id="logo-letters" x="84" y="358.5" xmlns="http://www.w3.org/2000/svg">
  <defs>
    <style>.axcls-1{fill:#fff;fill-rule:evenodd}</style>
  </defs>
  <path id="axФигура_1" data-name="Фигура 1" class="axcls-1" d="M215.627,183.07H189.468v-17.6H172V122h43.627A30.536,30.536,0,0,1,215.627,183.07ZM213.8,139.6H189.534v25.879H213.8A12.94,12.94,0,0,0,213.8,139.6ZM196.65,201.248c0,2.228-1.465,4.592-5.171,4.592h-2.56v-9.159h2.5C195.69,196.681,196.65,199.4,196.65,201.248Zm-6.821,3.763h1.65c3.016,0,4.26-1.943,4.26-3.763,0-1.485-.837-3.738-4.321-3.738h-1.589v7.5Zm11.438-6.1a2.992,2.992,0,0,1,2.646,1.336h0.025V199.07H204.8v6.77h-0.862v-1.263h-0.025A3.005,3.005,0,0,1,201.291,206a3.507,3.507,0,0,1-3.607-3.589A3.465,3.465,0,0,1,201.267,198.909Zm0.024,6.263a2.646,2.646,0,0,0,2.647-2.674A2.672,2.672,0,1,0,201.291,205.172Zm5.835-8.491h0.911v2.389H209.6V199.9h-1.564v5.941h-0.911V199.9h-1.4V199.07h1.4v-2.389Zm6.722,2.228a2.994,2.994,0,0,1,2.647,1.336h0.025V199.07h0.862v6.77H216.52v-1.263H216.5A3.006,3.006,0,0,1,213.873,206a3.507,3.507,0,0,1-3.607-3.589A3.464,3.464,0,0,1,213.848,198.909Zm0.025,6.263a2.646,2.646,0,0,0,2.647-2.674A2.672,2.672,0,1,0,213.873,205.172Zm11.215-5.743c0,1.361-.837,2.735-3.14,2.735h-1.969v3.676h-0.911v-9.159h2.88C224.62,196.681,225.088,198.389,225.088,199.429Zm-5.109,1.906h1.982c1.625,0,2.216-.953,2.216-1.906,0-.978-0.591-1.919-2.216-1.919h-1.982v3.825Zm7.1-1.287h0.024a2.058,2.058,0,0,1,1.933-1.127v0.916a1.927,1.927,0,0,0-1.908,1.993v4.01h-0.911v-6.77h0.862v0.978Zm5.724-1.139a3.546,3.546,0,1,1-3.521,3.552A3.472,3.472,0,0,1,232.807,198.909Zm0,6.263a2.719,2.719,0,1,0-2.61-2.711A2.594,2.594,0,0,0,232.807,205.172Z" transform="translate(-172 -122)"/>
</svg><svg width="24" height="19" viewBox="-2 -2 24 19" id="mail-black" x="484.407" y="243.969" xmlns="http://www.w3.org/2000/svg">
  <defs>
    <style>.aycls-1{fill:#2c2d30;fill-rule:evenodd}</style>
  </defs>
  <path class="aycls-1" d="M1009.85,4876h-15.7a2.161,2.161,0,0,1-2.155-2.16v-10.05l8.37,5.58h0a3.118,3.118,0,0,0,3.26,0h0l8.37-5.58v10.05A2.162,2.162,0,0,1,1009.85,4876Zm-6.87-7.6a1.961,1.961,0,0,1-1.96,0h0l-8.9-5.95a2.162,2.162,0,0,1,2.037-1.45h15.685a2.157,2.157,0,0,1,2.04,1.45l-8.9,5.95h0Z" transform="translate(-992 -4861)"/>
</svg><svg width="64" height="64" viewBox="-2 -2 64 64" id="perspective1" x="162" y="358.5" xmlns="http://www.w3.org/2000/svg">
  <defs>
    <style>.azcls-1{fill:#48b13b;fill-rule:evenodd}</style>
  </defs>
  <path id="azperspective1" class="azcls-1" d="M270.945,2720.32a1.755,1.755,0,1,0,0-3.51,10.434,10.434,0,1,1,2.679-20.52,1.755,1.755,0,0,0,2.182-1.39,11.371,11.371,0,0,1,22.03-1.46,13.994,13.994,0,0,0-4.642,3.07,1.759,1.759,0,0,0,2.486,2.49,10.431,10.431,0,1,1,7.375,17.81,1.755,1.755,0,1,0,0,3.51,13.949,13.949,0,1,0-1.814-27.78,14.891,14.891,0,0,0-28.482,0,13.949,13.949,0,1,0-1.814,27.78h0Zm24.61-13.48-7.5-5.62a1.755,1.755,0,0,0-2.11,0l-7.5,5.62a1.761,1.761,0,0,0,2.11,2.82l6.445-4.84,6.445,4.84A1.761,1.761,0,0,0,295.555,2706.84ZM287,2726.88a1.752,1.752,0,0,0,1.758-1.75v-9.61l4.687,3.51a1.757,1.757,0,1,0,2.11-2.81c-8.106-6.08-7.613-5.76-8.016-5.89a1.743,1.743,0,0,0-1.5.2c-0.092.06,0.3-.23-7.6,5.69a1.757,1.757,0,1,0,2.11,2.81l4.687-3.51v9.61A1.752,1.752,0,0,0,287,2726.88Zm25.312,7.74H292.218a5.506,5.506,0,0,0-10.437,0H261.687a1.755,1.755,0,1,0,0,3.51h20.087a5.736,5.736,0,0,0,1.305,2.17,5.446,5.446,0,0,0,9.147-2.17h20.086A1.755,1.755,0,1,0,312.312,2734.62ZM287,2738.48a2.1,2.1,0,0,1-1.992-2.1,1.992,1.992,0,1,1,3.984,0A2.1,2.1,0,0,1,287,2738.48Z" transform="translate(-257 -2682)"/>
</svg><svg width="40" height="58.97" viewBox="-2 -2 40 58.97" id="perspective2" x="180.094" y="299.031" xmlns="http://www.w3.org/2000/svg">
  <defs>
    <style>.bacls-1{fill:#48b13b;fill-rule:evenodd}</style>
  </defs>
  <path id="baperspective2" class="bacls-1" d="M753.768,2701.11a1.619,1.619,0,0,0,2.277.32,1.594,1.594,0,0,0,.322-2.25,8.174,8.174,0,0,1,.213-10.16,1.593,1.593,0,0,0-.227-2.26,1.628,1.628,0,0,0-2.288.22A11.36,11.36,0,0,0,753.768,2701.11Zm-3.473,4.97a1.645,1.645,0,0,0,1.025-.36,1.606,1.606,0,0,0,.236-2.27,14.51,14.51,0,0,1,.275-18.76,1.6,1.6,0,0,0-.17-2.27,1.632,1.632,0,0,0-2.293.17,17.714,17.714,0,0,0-.335,22.9A1.627,1.627,0,0,0,750.3,2706.08Zm21-11.85a8.24,8.24,0,0,1-1.666,4.95,1.594,1.594,0,0,0,.322,2.25,1.619,1.619,0,0,0,2.277-.32,11.36,11.36,0,0,0-.3-14.13,1.628,1.628,0,0,0-2.288-.22,1.593,1.593,0,0,0-.227,2.26A8.212,8.212,0,0,1,771.3,2694.23Zm6.449,0a14.557,14.557,0,0,1-3.3,9.22,1.6,1.6,0,0,0,.236,2.27,1.642,1.642,0,0,0,2.287-.23,17.714,17.714,0,0,0-.335-22.9,1.633,1.633,0,0,0-2.294-.17,1.6,1.6,0,0,0-.169,2.27A14.532,14.532,0,0,1,777.748,2694.23Zm0.537,39.55h-4.564l-8.308-35.1a5.1,5.1,0,1,0-4.831,0l-8.308,35.1h-4.555a1.61,1.61,0,1,0,0,3.22h30.566A1.61,1.61,0,1,0,778.285,2733.78Zm-10.973-12.96-6.217-3.68,4.7-2.73ZM763,2692.4a1.835,1.835,0,1,1-1.847,1.83A1.847,1.847,0,0,1,763,2692.4Zm0,10.19,2.021,8.54-4.687,2.72Zm-4.035,17.04,7.61,4.5-10.073,5.91Zm-2.458,14.15,12.185-7.15,1.691,7.15H756.505Z" transform="translate(-745 -2682.03)"/>
</svg><svg width="58" height="61" viewBox="-2 -2 58 61" id="perspective3" x="226" y="358.5" xmlns="http://www.w3.org/2000/svg">
  <defs>
    <style>.bbcls-1{fill:#48b13b;fill-rule:evenodd}</style>
  </defs>
  <path id="bbperspective3" class="bbcls-1" d="M1267.71,2715.75c3.12-3.62,6.88-8.14,4.58-19.24-3-14.51-18.56-19.31-31.79-14.98-10.3,3.38-16.74,12.7-16.42,23.76a0.922,0.922,0,0,1-.09.47l-4.41,7.65a4.051,4.051,0,0,0,2.97,6.09l1.45,0.2c1.3,10.61,2.02,12.69,3.79,14.27,1.11,1,3.24,1.12,6.33.37a26.688,26.688,0,0,0,5.97-2.25,23.167,23.167,0,0,1,.85,3.46,1.772,1.772,0,0,0,1.75,1.45h23.17a1.762,1.762,0,0,0,1.67-2.36,39.369,39.369,0,0,1-2.7-13.47C1264.87,2719.04,1266.06,2717.66,1267.71,2715.75Zm-4.32,17.74h-19.25a15.714,15.714,0,0,0-1.73-4.86,1.778,1.778,0,0,0-2.43-.52c-4.1,2.59-8.83,3.45-9.92,3.16-0.73-.73-1.37-2.34-2.58-12.3a3.129,3.129,0,0,0-2.67-2.7l-1.76-.25a0.539,0.539,0,0,1-.41-0.85l4.44-7.71a0.251,0.251,0,0,0,.04-0.07,4.553,4.553,0,0,0,.5-2.2,20.213,20.213,0,0,1,13.99-20.32c10.73-3.51,24.59-.35,27.21,12.34,1.98,9.55-.96,12.96-3.8,16.25-1.8,2.09-3.67,4.25-3.73,7.65A40.057,40.057,0,0,0,1263.39,2733.49Zm-13.37-35.31,1.21-.73v7.78a1.77,1.77,0,0,0,3.54,0v-10.9a1.771,1.771,0,0,0-2.69-1.5l-3.89,2.34A1.761,1.761,0,1,0,1250.02,2698.18Zm4.28,11.85h-2.6a4.116,4.116,0,0,0-4.12,4.1v6.21a4.116,4.116,0,0,0,4.12,4.1h2.6a4.116,4.116,0,0,0,4.12-4.1v-6.21A4.116,4.116,0,0,0,1254.3,2710.03Zm0.59,10.31a0.589,0.589,0,0,1-.59.58h-2.6a0.589,0.589,0,0,1-.59-0.58v-6.21a0.6,0.6,0,0,1,.59-0.59h2.6a0.6,0.6,0,0,1,.59.59v6.21Zm-14.36-27.76h-2.59a4.11,4.11,0,0,0-4.13,4.09v6.21a4.118,4.118,0,0,0,4.13,4.1h2.59a4.118,4.118,0,0,0,4.13-4.1v-6.21A4.11,4.11,0,0,0,1240.53,2692.58Zm0.59,10.3a0.585,0.585,0,0,1-.59.59h-2.59a0.585,0.585,0,0,1-.59-0.59v-6.21a0.583,0.583,0,0,1,.59-0.58h2.59a0.583,0.583,0,0,1,.59.58v6.21Zm-2.8,7.4-3.89,2.35a1.74,1.74,0,0,0-.6,2.41,1.778,1.778,0,0,0,2.43.59l1.2-.73v7.78a1.77,1.77,0,0,0,3.54,0v-10.89A1.772,1.772,0,0,0,1238.32,2710.28Z" transform="translate(-1219 -2680)"/>
</svg><svg width="55" height="58" viewBox="-2 -2 55 58" id="perspective4" x="220.094" y="299.031" xmlns="http://www.w3.org/2000/svg">
  <defs>
    <style>.bccls-1{fill:#48b13b;fill-rule:evenodd}</style>
  </defs>
  <path id="bcperspective4" class="bccls-1" d="M302.414,3161.74a8.542,8.542,0,0,0-6.408,2.91l-3.561-2.17A12.3,12.3,0,0,0,290,3149l5.074-6.51a6.539,6.539,0,1,0-3.831-5.96,6.6,6.6,0,0,0,.142,1.36,6.493,6.493,0,0,0,1.222,2.64l-5.074,6.51a12.05,12.05,0,0,0-14.228,1.34l-3.092-2.72a5.33,5.33,0,1,0-4.873,3.19,5.28,5.28,0,0,0,2.806-.81l3.091,2.73a12.279,12.279,0,0,0,1.609,15.53L269,3171.46a6.257,6.257,0,0,0-2.522-.52,6.51,6.51,0,1,0,5.03,2.42l3.843-5.15a12.047,12.047,0,0,0,15.467-3.03l3.561,2.17a8.706,8.706,0,0,0-.55,3.05,8.814,8.814,0,0,0,.159,1.66A8.594,8.594,0,1,0,302.414,3161.74Zm-4.694-28.58a3.37,3.37,0,1,1-3.339,3.37A3.357,3.357,0,0,1,297.72,3133.16Zm-32.382,12.52a2.215,2.215,0,1,1,2.2-2.21A2.206,2.206,0,0,1,265.338,3145.68Zm1.14,35.15a3.365,3.365,0,1,1,3.338-3.36A3.348,3.348,0,0,1,266.478,3180.83Zm14.851-14.2a9.075,9.075,0,1,1,9-9.07A9.047,9.047,0,0,1,281.329,3166.63Zm21.085,9.26a5.49,5.49,0,1,1,5.446-5.49A5.479,5.479,0,0,1,302.414,3175.89Z" transform="translate(-260 -3130)"/>
</svg><svg width="55" height="55" viewBox="-2 -2 55 55" id="perspective5" x="316" y="358.5" xmlns="http://www.w3.org/2000/svg">
  <defs>
    <style>.bdcls-1{fill:#48b13b;fill-rule:evenodd}</style>
  </defs>
  <path id="bdperspective5" class="bdcls-1" d="M785.288,3170.88a10.876,10.876,0,0,0-5.892-6.35v-24.26c0-4.68-12.972-5.27-17.7-5.27s-17.7.59-17.7,5.27v35.14c0,3.86,8.9,4.82,12.778,5.1a7.751,7.751,0,0,0,7.512,5.48c0.064,0.01,22.7.01,22.977,0a7.574,7.574,0,0,0,7.733-7.74C795,3172.98,790.06,3169.23,785.288,3170.88Zm2.068,12.02s-23.237.02-23.049,0.01a4.808,4.808,0,0,1-4.836-5c0-3.64,3.5-6.07,6.554-4.54a1.551,1.551,0,0,0,2.189-.94,7.556,7.556,0,0,1,7.16-5.65,7.668,7.668,0,0,1,7.38,6.61,1.552,1.552,0,0,0,2.447.98c2.829-2.07,6.7.13,6.7,3.88A4.461,4.461,0,0,1,787.356,3182.9Zm-40.255-7.7v-7.93c4.751,1.93,13.593,2.22,19.173,1.85-0.17.29-.324,0.6-0.467,0.91a7.8,7.8,0,0,0-9.421,7.36C754.311,3177.22,748.552,3176.53,747.1,3175.2Zm28.91-34.93c-4.764,2.91-23.917,2.88-28.627,0C752.1,3137.39,771.256,3137.37,776.011,3140.27Zm-28.91,14.96c6.584,2.67,22.693,2.64,29.194,0v8.5a10.325,10.325,0,0,0-7.031,2.01c-8.782,1.11-20.126-.09-22.163-1.95v-8.56Zm0-11.68c6.514,2.65,22.638,2.67,29.194,0v8.2c-3.621,3.31-25.94,2.99-29.194,0v-8.2Z" transform="translate(-744 -3135)"/>
</svg><svg width="54" height="54" viewBox="-2 -2 54 54" id="perspective6" x="371" y="358.5" xmlns="http://www.w3.org/2000/svg">
  <defs>
    <style>.becls-1{fill:#48b13b;fill-rule:evenodd}</style>
  </defs>
  <path id="beperspective6" class="becls-1" d="M1275.54,3165.39h-8.89v-5.85h-13.19v-2.93h11.72v-17.68h-12.57l-2.93-2.93h-10.86v20.61h11.72v2.93h-13.19v5.85h-8.89v11.82H1227V3186h23.54v-8.79h-1.47v-11.82h-8.79v-2.93h23.44v2.93h-8.79v11.82h-1.47V3186H1277v-8.79h-1.46v-11.82Zm-27.08-26.46,2.93,2.93h10.86v2.93h-20.5v-5.86h6.71Zm-6.71,8.79h20.5v5.96h-20.5v-5.96Zm5.86,35.35h-17.68v-2.93h17.68v2.93Zm-1.47-5.86h-14.75v-8.89h14.75v8.89Zm11.72-8.89h14.75v8.89h-14.75v-8.89Zm16.21,14.75h-17.68v-2.93h17.68v2.93Z" transform="translate(-1227 -3136)"/>
</svg><svg width="13.625" height="19.188" viewBox="-2 -2 13.625 19.188" id="phone-green" x="503.407" y="350.344" xmlns="http://www.w3.org/2000/svg">
  <defs>
    <style>.bfcls-1{fill:#48b13b;fill-rule:evenodd}</style>
  </defs>
  <path class="bfcls-1" d="M160.8,776.9H155.2a1.944,1.944,0,0,0-2,1.9v11.4a1.955,1.955,0,0,0,2,1.9H160.8a1.944,1.944,0,0,0,2-1.9V778.8A1.944,1.944,0,0,0,160.8,776.9Zm-2.8,13.974a0.865,0.865,0,1,1,.907-0.864A0.878,0.878,0,0,1,158.009,790.874Zm3.884-2.643h-7.786v-8.792h7.786v8.792Z" transform="translate(-153.188 -776.906)"/>
</svg><svg width="15.56" height="15.562" viewBox="-2 -2 15.56 15.562" id="play-green" x="501.757" y="410.589" xmlns="http://www.w3.org/2000/svg">
  <defs>
    <style>.bgcls-1{fill:#48b13b;fill-rule:evenodd}</style>
  </defs>
  <path id="bgPolygon_1" data-name="Polygon 1" class="bgcls-1" d="M1376.27,666.5l-11.55,5.776V660.724Z" transform="translate(-1364.72 -660.719)"/>
</svg><svg width="22" height="22" viewBox="-2 -2 22 22" id="play-icon-green" x="484.407" y="285.969" xmlns="http://www.w3.org/2000/svg">
  <defs>
    <style>.bhcls-1{fill:#48b13b;fill-rule:evenodd}</style>
  </defs>
  <path class="bhcls-1" d="M270,2164.4a7.605,7.605,0,1,1-5.372,2.23A7.532,7.532,0,0,1,270,2164.4m0-1.4a9,9,0,1,0,9,9,9,9,0,0,0-9-9h0Zm-1.253,6.94,3.573,2.06-3.573,2.06v-4.12m-1.4-2.43v8.98l7.781-4.49-7.781-4.49h0Z" transform="translate(-261 -2163)"/>
</svg><svg width="34" height="34" viewBox="-2 -2 34 34" version="1.1" id="play-video" x="425" y="358.5" xmlns="http://www.w3.org/2000/svg">
<g id="bisurface1">
<path style=" stroke:none;fill-rule:nonzero;fill:rgb(13.72549%,12.156863%,12.54902%);fill-opacity:1;" d="M 30 15 C 30 23.285156 23.285156 30 15 30 C 6.714844 30 0 23.285156 0 15 C 0 6.714844 6.714844 0 15 0 C 23.285156 0 30 6.714844 30 15 Z M 30 15 "/>
<path style=" stroke:none;fill-rule:nonzero;fill:rgb(100%,100%,100%);fill-opacity:1;" d="M 21.722656 14.042969 L 12.0625 8.464844 C 11.722656 8.269531 11.304688 8.265625 10.964844 8.460938 C 10.621094 8.652344 10.410156 9.011719 10.402344 9.40625 L 10.402344 20.574219 C 10.402344 20.972656 10.613281 21.335938 10.957031 21.535156 C 11.296875 21.734375 11.722656 21.734375 12.0625 21.535156 L 21.722656 15.957031 C 22.066406 15.757812 22.277344 15.394531 22.277344 15 C 22.277344 14.605469 22.066406 14.242188 21.722656 14.042969 Z M 21.722656 14.042969 "/>
</g>
</svg><svg width="18.875" height="19.625" viewBox="-2 -2 18.875 19.625" id="plus-green" x="484.407" y="371.344" xmlns="../../../external.html?link=http://www.w3.org/2000/svg">
  <defs>
    <style>.bjcls-1{fill:#48b13b;fill-rule:evenodd}</style>
  </defs>
  <path id="bj_" data-name="+" class="bjcls-1" d="M337.3,800.837v-2.373h-6.255v-6.548h-2.373v6.548h-6.255v2.373h6.255v6.709h2.373v-6.709H337.3Z" transform="translate(-322.406 -791.906)"/>
</svg><svg width="18.875" height="19.62" viewBox="-2 -2 18.875 19.62" id="plus-white" x="484.407" y="390.969" xmlns="http://www.w3.org/2000/svg">
  <defs>
    <style>.bkcls-1{fill:#f2f2f2;fill-rule:evenodd}</style>
  </defs>
  <path id="bk_" data-name="+" class="bkcls-1" d="M291.3,2043.84v-2.38h-6.255v-6.54h-2.373v6.54h-6.255v2.38h6.255v6.71h2.373v-6.71H291.3Z" transform="translate(-276.406 -2034.91)"/>
</svg><svg width="26" height="29.969" viewBox="-2 -2 26 29.969" id="polygon" x="484.407" y="33" xmlns="http://www.w3.org/2000/svg">
  <defs>
    <style>.blcls-1{fill:#47b13b;fill-rule:evenodd}</style>
  </defs>
  <path id="blPolygon_1_copy" data-name="Polygon 1 copy" class="blcls-1" d="M1293.02,514.008l-22,12.98v-25.96Z" transform="translate(-1271.03 -501.031)"/>
</svg><svg width="19" height="21" viewBox="-2 -2 19 21" id="profile-black" x="484.407" y="350.344" xmlns="http://www.w3.org/2000/svg">
  <defs>
    <style>.bmcls-1{fill:#2c2d30;fill-rule:evenodd}</style>
  </defs>
  <path class="bmcls-1" d="M302.5,4877h-14a0.5,0.5,0,0,1-.5-0.5,6.526,6.526,0,0,1,1.9-4.61,6.45,6.45,0,0,1,4.6-1.93h2a6.45,6.45,0,0,1,4.6,1.93,6.526,6.526,0,0,1,1.9,4.61A0.5,0.5,0,0,1,302.5,4877Zm-7-8.04a4.48,4.48,0,1,1,4.5-4.48A4.5,4.5,0,0,1,295.5,4868.96Z" transform="translate(-288 -4860)"/>
</svg><svg width="15" height="20" viewBox="-2 -2 15 20" id="rect-green" x="502.407" y="329.344" xmlns="http://www.w3.org/2000/svg">
  <defs>
    <style>.bncls-1{fill:#b4ff22}</style>
  </defs>
  <rect class="bncls-1" width="11" height="16"/>
</svg><svg width="26" height="21" viewBox="-2 -2 26 21" id="text-black" x="484.407" y="173.969" xmlns="http://www.w3.org/2000/svg">
  <defs>
    <style>.bocls-1{fill:#2c2d30;fill-rule:evenodd}</style>
  </defs>
  <path class="bocls-1" d="M284.786,5181.27h18.857a0.772,0.772,0,0,1,.552.23,0.743,0.743,0,0,1,.233.55v1.54a0.722,0.722,0,0,1-.233.54,0.733,0.733,0,0,1-.552.23H284.786a0.737,0.737,0,0,1-.553-0.23,0.725,0.725,0,0,1-.233-0.54v-1.54a0.747,0.747,0,0,1,.233-0.55A0.776,0.776,0,0,1,284.786,5181.27Zm0,4.64h14.142a0.776,0.776,0,0,1,.553.23,0.725,0.725,0,0,1,.233.54v1.55a0.725,0.725,0,0,1-.233.54,0.776,0.776,0,0,1-.553.23H284.786a0.776,0.776,0,0,1-.553-0.23,0.725,0.725,0,0,1-.233-0.54v-1.55a0.725,0.725,0,0,1,.233-0.54A0.776,0.776,0,0,1,284.786,5185.91Zm20.981-11.05a0.776,0.776,0,0,1-.553.23H284.786a0.776,0.776,0,0,1-.553-0.23,0.725,0.725,0,0,1-.233-0.54v-1.55a0.725,0.725,0,0,1,.233-0.54,0.776,0.776,0,0,1,.553-0.23h20.428a0.776,0.776,0,0,1,.553.23,0.725,0.725,0,0,1,.233.54v1.55A0.725,0.725,0,0,1,305.767,5174.86Zm-20.981,1.78H300.5a0.733,0.733,0,0,1,.552.23,0.723,0.723,0,0,1,.234.54v1.54a0.744,0.744,0,0,1-.234.55,0.772,0.772,0,0,1-.552.23H284.786a0.776,0.776,0,0,1-.553-0.23,0.747,0.747,0,0,1-.233-0.55v-1.54a0.725,0.725,0,0,1,.233-0.54A0.737,0.737,0,0,1,284.786,5176.64Z" transform="translate(-284 -5172)"/>
</svg></svg>